<svg width="81" height="64" viewBox="0 0 81 64" fill="none" xmlns="http://www.w3.org/2000/svg">
<path d="M35.4252 4.32454C35.4307 5.1661 35.7141 5.9879 36.2404 6.68865C36.7668 7.3894 37.5131 7.93852 38.3876 8.2684V55.7442C36.6439 56.4152 35.4252 57.6162 35.4252 59.688C35.4252 61.7599 37.6559 64 40.414 64C43.1721 64 45.4028 61.7578 45.4028 59.688C45.4028 57.6183 44.1864 56.4152 42.4403 55.7442V8.2684C43.3149 7.93874 44.0615 7.38966 44.5879 6.68886C45.1143 5.98805 45.3976 5.16617 45.4028 4.32454C45.3345 3.19552 44.7799 2.13266 43.8532 1.35483C42.9264 0.577001 41.698 0.143477 40.4211 0.143477C39.1441 0.143477 37.9158 0.577001 36.989 1.35483C36.0623 2.13266 35.5076 3.19552 35.4394 4.32454M53.4418 5.37624C52.4173 6.2547 51.6023 7.30621 51.0449 8.46847C50.4875 9.63074 50.1991 10.8802 50.1967 12.1429V45.5217C48.453 46.1926 47.2343 47.3937 47.2343 49.4655C47.2343 51.5374 49.465 53.7775 52.2231 53.7775C54.9812 53.7775 57.2119 51.5353 57.2119 49.4655C57.2119 47.3958 55.9956 46.1926 54.2495 45.5217V12.1534C54.2511 11.3518 54.4345 10.5585 54.7887 9.82074C55.1429 9.08295 55.6607 8.41559 56.3115 7.85825C57.638 6.71082 59.4197 6.06967 61.2741 6.07247H71.2636C71.665 6.84155 72.3078 7.49217 73.1152 7.94678C73.9227 8.4014 74.8607 8.64083 75.8176 8.6365C76.4699 8.65454 77.1198 8.55637 77.7284 8.3478C78.3371 8.13922 78.8922 7.82451 79.3608 7.42232C79.8295 7.02014 80.2021 6.53867 80.4565 6.00654C80.711 5.4744 80.8421 4.90241 80.8421 4.32454C80.8421 3.74667 80.711 3.17473 80.4565 2.64259C80.2021 2.11046 79.8295 1.62899 79.3608 1.22681C78.8922 0.824622 78.3371 0.509911 77.7284 0.301334C77.1198 0.0927572 76.4699 -0.00546337 75.8176 0.0125796C74.8607 0.00825298 73.9227 0.247676 73.1152 0.702294C72.3078 1.15691 71.665 1.80758 71.2636 2.57666H61.2741C58.3417 2.56806 55.5232 3.58122 53.4275 5.39729L53.4418 5.37624ZM30.6359 12.1429C30.6331 10.8801 30.3442 9.63053 29.7864 8.46827C29.2286 7.30601 28.4133 6.2546 27.3885 5.37624C25.2994 3.56951 22.4931 2.56055 19.5728 2.56613H9.57858C9.17716 1.79705 8.53438 1.14644 7.72693 0.691818C6.91947 0.2372 5.98137 -0.00222291 5.0245 0.00210372C4.37217 -0.0159393 3.72241 0.0822299 3.11375 0.290807C2.50509 0.499384 1.94998 0.814095 1.48133 1.21628C1.01269 1.61847 0.64009 2.09993 0.38563 2.63207C0.131171 3.1642 0 3.73619 0 4.31406C0 4.89193 0.131171 5.46387 0.38563 5.99601C0.64009 6.52815 1.01269 7.00961 1.48133 7.4118C1.94998 7.81398 2.50509 8.12869 3.11375 8.33727C3.72241 8.54585 4.37217 8.64407 5.0245 8.62602C5.98177 8.63075 6.9204 8.39151 7.72832 7.93687C8.53624 7.48223 9.17937 6.83135 9.58096 6.06195H19.5704C21.4247 6.05959 23.2063 6.70067 24.533 7.84773C25.1838 8.40507 25.7017 9.07243 26.0559 9.81021C26.4101 10.548 26.5934 11.3412 26.595 12.1429V45.5217C24.849 46.1926 23.6327 47.3937 23.6327 49.4655C23.6327 51.5374 25.861 53.7775 28.6214 53.7775C31.3819 53.7775 33.6102 51.5353 33.6102 49.4655C33.6102 47.3958 32.3915 46.1926 30.6478 45.5217L30.6359 12.1429Z" fill="#EAEAEA"/>
</svg>
