<svg width="223" height="64" viewBox="0 0 223 64" fill="none" xmlns="http://www.w3.org/2000/svg">
<path d="M35.4252 4.32454C35.4307 5.1661 35.7141 5.9879 36.2404 6.68865C36.7668 7.3894 37.5131 7.93852 38.3876 8.2684V55.7442C36.6439 56.4152 35.4252 57.6162 35.4252 59.688C35.4252 61.7599 37.6559 64 40.414 64C43.1721 64 45.4028 61.7578 45.4028 59.688C45.4028 57.6183 44.1864 56.4152 42.4403 55.7442V8.2684C43.3149 7.93874 44.0615 7.38966 44.5879 6.68886C45.1143 5.98805 45.3976 5.16617 45.4028 4.32454C45.3345 3.19552 44.7799 2.13266 43.8532 1.35483C42.9264 0.577001 41.698 0.143477 40.4211 0.143477C39.1441 0.143477 37.9158 0.577001 36.989 1.35483C36.0623 2.13266 35.5076 3.19552 35.4394 4.32454M53.4418 5.37624C52.4173 6.2547 51.6023 7.30621 51.0449 8.46847C50.4875 9.63074 50.1991 10.8802 50.1967 12.1429V45.5217C48.453 46.1926 47.2343 47.3937 47.2343 49.4655C47.2343 51.5374 49.465 53.7775 52.2231 53.7775C54.9812 53.7775 57.2119 51.5353 57.2119 49.4655C57.2119 47.3958 55.9956 46.1926 54.2495 45.5217V12.1534C54.2511 11.3518 54.4345 10.5585 54.7887 9.82074C55.1429 9.08295 55.6607 8.41559 56.3115 7.85825C57.638 6.71082 59.4197 6.06967 61.2741 6.07247H71.2636C71.665 6.84155 72.3078 7.49217 73.1152 7.94678C73.9227 8.4014 74.8607 8.64083 75.8176 8.6365C76.4699 8.65454 77.1198 8.55637 77.7284 8.3478C78.3371 8.13922 78.8922 7.82451 79.3608 7.42232C79.8295 7.02014 80.2021 6.53867 80.4565 6.00654C80.711 5.4744 80.8421 4.90241 80.8421 4.32454C80.8421 3.74667 80.711 3.17473 80.4565 2.64259C80.2021 2.11046 79.8295 1.62899 79.3608 1.22681C78.8922 0.824622 78.3371 0.509911 77.7284 0.301334C77.1198 0.0927572 76.4699 -0.00546337 75.8176 0.0125796C74.8607 0.00825298 73.9227 0.247676 73.1152 0.702294C72.3078 1.15691 71.665 1.80758 71.2636 2.57666H61.2741C58.3417 2.56806 55.5232 3.58122 53.4275 5.39729L53.4418 5.37624ZM30.6359 12.1429C30.6331 10.8801 30.3442 9.63053 29.7864 8.46827C29.2286 7.30601 28.4133 6.2546 27.3885 5.37624C25.2994 3.56951 22.4931 2.56055 19.5728 2.56613H9.57858C9.17716 1.79705 8.53438 1.14644 7.72693 0.691818C6.91947 0.2372 5.98137 -0.00222291 5.0245 0.00210372C4.37217 -0.0159393 3.72241 0.0822299 3.11375 0.290807C2.50509 0.499384 1.94998 0.814095 1.48133 1.21628C1.01269 1.61847 0.64009 2.09993 0.38563 2.63207C0.131171 3.1642 0 3.73619 0 4.31406C0 4.89193 0.131171 5.46387 0.38563 5.99601C0.64009 6.52815 1.01269 7.00961 1.48133 7.4118C1.94998 7.81398 2.50509 8.12869 3.11375 8.33727C3.72241 8.54585 4.37217 8.64407 5.0245 8.62602C5.98177 8.63075 6.9204 8.39151 7.72832 7.93687C8.53624 7.48223 9.17937 6.83135 9.58096 6.06195H19.5704C21.4247 6.05959 23.2063 6.70067 24.533 7.84773C25.1838 8.40507 25.7017 9.07243 26.0559 9.81021C26.4101 10.548 26.5934 11.3412 26.595 12.1429V45.5217C24.849 46.1926 23.6327 47.3937 23.6327 49.4655C23.6327 51.5374 25.861 53.7775 28.6214 53.7775C31.3819 53.7775 33.6102 51.5353 33.6102 49.4655C33.6102 47.3958 32.3915 46.1926 30.6478 45.5217L30.6359 12.1429Z" fill="#EAEAEA"/>
<path d="M68.7327 46V23.7812H65.467V18.5H77.4983V23.7812H74.2327V46H68.7327ZM85.4983 46.25C83.8316 46.25 82.5035 45.9375 81.5139 45.3125C80.5243 44.6875 79.816 43.7865 79.3889 42.6094C78.9618 41.4323 78.7483 40.0156 78.7483 38.3594V28.9375C78.7483 26.7604 79.3733 25.1146 80.6233 24C81.8733 22.875 83.592 22.3125 85.7795 22.3125C90.2795 22.3125 92.5295 24.5208 92.5295 28.9375V30.6406C92.5295 32.7031 92.5087 34.0885 92.467 34.7969H84.342V39.3281C84.342 39.7448 84.3681 40.1562 84.4202 40.5625C84.4722 40.9583 84.5868 41.2865 84.7639 41.5469C84.9514 41.8073 85.2483 41.9375 85.6545 41.9375C86.2379 41.9375 86.6025 41.6875 86.7483 41.1875C86.8941 40.6771 86.967 40.0156 86.967 39.2031V36.9531H92.5295V38.2812C92.5295 40.0312 92.3108 41.5 91.8733 42.6875C91.4462 43.8646 90.717 44.7552 89.6858 45.3594C88.665 45.9531 87.2691 46.25 85.4983 46.25ZM84.3108 32.0156H86.967V28.8594C86.967 28.0156 86.8629 27.4115 86.6545 27.0469C86.4462 26.6719 86.1337 26.4844 85.717 26.4844C85.2691 26.4844 84.9202 26.6615 84.6702 27.0156C84.4306 27.3698 84.3108 27.9844 84.3108 28.8594V32.0156ZM101.608 46.25C98.9827 46.25 97.1181 45.5781 96.0139 44.2344C94.9202 42.8906 94.3733 40.9167 94.3733 38.3125V31.0938C94.3733 29.1354 94.5816 27.5052 94.9983 26.2031C95.415 24.901 96.1441 23.9271 97.1858 23.2812C98.2275 22.6354 99.6754 22.3125 101.53 22.3125C102.821 22.3125 103.977 22.5417 104.998 23C106.03 23.4583 106.842 24.1302 107.436 25.0156C108.03 25.901 108.326 26.9844 108.326 28.2656V31.8438H102.623V28.5625C102.623 28.0208 102.545 27.5677 102.389 27.2031C102.233 26.8281 101.894 26.6406 101.373 26.6406C100.457 26.6406 99.9983 27.2917 99.9983 28.5938V39.9531C99.9983 40.4323 100.102 40.875 100.311 41.2812C100.519 41.6771 100.863 41.875 101.342 41.875C101.832 41.875 102.17 41.6823 102.358 41.2969C102.556 40.901 102.655 40.4427 102.655 39.9219V35.9844H108.326V40.0781C108.326 41.3698 108.035 42.4792 107.451 43.4062C106.878 44.3229 106.087 45.026 105.076 45.5156C104.066 46.0052 102.91 46.25 101.608 46.25ZM110.28 46V18.5H116.03V24.8906C116.332 24.0156 116.795 23.3698 117.42 22.9531C118.045 22.526 118.774 22.3125 119.608 22.3125C121.233 22.3125 122.415 22.8229 123.155 23.8438C123.894 24.8646 124.264 26.2344 124.264 27.9531V46H118.608V28.3125C118.608 27.8021 118.498 27.3854 118.28 27.0625C118.071 26.7396 117.738 26.5781 117.28 26.5781C116.894 26.5781 116.587 26.7448 116.358 27.0781C116.139 27.4115 116.03 27.8073 116.03 28.2656V46H110.28ZM126.436 21.125V16.4688H132.03V21.125H126.436ZM126.436 46V22.5625H132.03V46H126.436ZM141.061 46.25C136.394 46.25 134.061 43.8281 134.061 38.9844V29.5781C134.061 27.3698 134.681 25.6094 135.92 24.2969C137.16 22.974 138.873 22.3125 141.061 22.3125C143.259 22.3125 144.977 22.974 146.217 24.2969C147.457 25.6094 148.076 27.3698 148.076 29.5781V38.9844C148.076 43.8281 145.738 46.25 141.061 46.25ZM141.061 41.9375C141.53 41.9375 141.863 41.7708 142.061 41.4375C142.269 41.0938 142.373 40.6615 142.373 40.1406V28.6875C142.373 27.3229 141.936 26.6406 141.061 26.6406C140.186 26.6406 139.748 27.3229 139.748 28.6875V40.1406C139.748 40.6615 139.847 41.0938 140.045 41.4375C140.253 41.7708 140.592 41.9375 141.061 41.9375ZM150.155 46V22.5625H155.748V25.5469C155.957 24.651 156.342 23.8906 156.905 23.2656C157.477 22.6302 158.269 22.3125 159.28 22.3125C160.905 22.3125 162.082 22.8125 162.811 23.8125C163.55 24.8125 163.92 26.1823 163.92 27.9219V46H158.405V28.5C158.405 28.0417 158.311 27.6198 158.123 27.2344C157.936 26.8385 157.613 26.6406 157.155 26.6406C156.727 26.6406 156.41 26.7917 156.201 27.0938C156.003 27.3854 155.878 27.7552 155.826 28.2031C155.774 28.6406 155.748 29.0781 155.748 29.5156V46H150.155ZM172.686 46.25C171.019 46.25 169.691 45.9375 168.701 45.3125C167.712 44.6875 167.003 43.7865 166.576 42.6094C166.149 41.4323 165.936 40.0156 165.936 38.3594V28.9375C165.936 26.7604 166.561 25.1146 167.811 24C169.061 22.875 170.78 22.3125 172.967 22.3125C177.467 22.3125 179.717 24.5208 179.717 28.9375V30.6406C179.717 32.7031 179.696 34.0885 179.655 34.7969H171.53V39.3281C171.53 39.7448 171.556 40.1562 171.608 40.5625C171.66 40.9583 171.774 41.2865 171.951 41.5469C172.139 41.8073 172.436 41.9375 172.842 41.9375C173.425 41.9375 173.79 41.6875 173.936 41.1875C174.082 40.6771 174.155 40.0156 174.155 39.2031V36.9531H179.717V38.2812C179.717 40.0312 179.498 41.5 179.061 42.6875C178.634 43.8646 177.905 44.7552 176.873 45.3594C175.852 45.9531 174.457 46.25 172.686 46.25ZM171.498 32.0156H174.155V28.8594C174.155 28.0156 174.05 27.4115 173.842 27.0469C173.634 26.6719 173.321 26.4844 172.905 26.4844C172.457 26.4844 172.108 26.6615 171.858 27.0156C171.618 27.3698 171.498 27.9844 171.498 28.8594V32.0156ZM188.311 46.25C186.644 46.25 185.316 45.9375 184.326 45.3125C183.337 44.6875 182.628 43.7865 182.201 42.6094C181.774 41.4323 181.561 40.0156 181.561 38.3594V28.9375C181.561 26.7604 182.186 25.1146 183.436 24C184.686 22.875 186.405 22.3125 188.592 22.3125C193.092 22.3125 195.342 24.5208 195.342 28.9375V30.6406C195.342 32.7031 195.321 34.0885 195.28 34.7969H187.155V39.3281C187.155 39.7448 187.181 40.1562 187.233 40.5625C187.285 40.9583 187.399 41.2865 187.576 41.5469C187.764 41.8073 188.061 41.9375 188.467 41.9375C189.05 41.9375 189.415 41.6875 189.561 41.1875C189.707 40.6771 189.78 40.0156 189.78 39.2031V36.9531H195.342V38.2812C195.342 40.0312 195.123 41.5 194.686 42.6875C194.259 43.8646 193.53 44.7552 192.498 45.3594C191.477 45.9531 190.082 46.25 188.311 46.25ZM187.123 32.0156H189.78V28.8594C189.78 28.0156 189.675 27.4115 189.467 27.0469C189.259 26.6719 188.946 26.4844 188.53 26.4844C188.082 26.4844 187.733 26.6615 187.483 27.0156C187.243 27.3698 187.123 27.9844 187.123 28.8594V32.0156ZM197.373 46V22.5625H203.061V25.1719C203.332 24.2656 203.811 23.5573 204.498 23.0469C205.186 22.5365 206.05 22.2812 207.092 22.2812V26.9531C206.634 26.9531 206.087 27.0052 205.451 27.1094C204.816 27.2031 204.259 27.3385 203.78 27.5156C203.3 27.6823 203.061 27.8698 203.061 28.0781V46H197.373ZM214.889 46.25C210.264 46.25 207.951 43.9062 207.951 39.2188V37.3594H213.576V40.1094C213.576 40.6406 213.681 41.0573 213.889 41.3594C214.097 41.6615 214.431 41.8125 214.889 41.8125C215.701 41.8125 216.108 41.2031 216.108 39.9844C216.108 38.9635 215.894 38.2031 215.467 37.7031C215.04 37.1927 214.519 36.7031 213.905 36.2344L210.92 33.9375C209.983 33.2083 209.269 32.4375 208.78 31.625C208.29 30.8125 208.045 29.6823 208.045 28.2344C208.045 26.8906 208.363 25.7812 208.998 24.9062C209.644 24.0312 210.493 23.3802 211.545 22.9531C212.608 22.526 213.753 22.3125 214.983 22.3125C219.524 22.3125 221.795 24.5781 221.795 29.1094V29.5469H216.014V28.6562C216.014 28.1875 215.931 27.7344 215.764 27.2969C215.608 26.8594 215.295 26.6406 214.826 26.6406C214.035 26.6406 213.639 27.0573 213.639 27.8906C213.639 28.7344 213.972 29.3958 214.639 29.875L218.108 32.4062C219.191 33.1875 220.097 34.1146 220.826 35.1875C221.566 36.2604 221.936 37.6875 221.936 39.4688C221.936 41.6771 221.306 43.3594 220.045 44.5156C218.795 45.6719 217.076 46.25 214.889 46.25Z" fill="#EAEAEA"/>
</svg>
